<?xml version="1.0" encoding="UTF-8" standalone="no"?>
<svg
   id="svg"
   version="1.1"
   viewBox="0 0 267.92368 257.65912"
   sodipodi:docname="resto-rate-logo.svg"
   width="267.92368"
   height="257.65912"
   inkscape:version="1.4.2 (ebf0e940d0, 2025-05-08)"
   xmlns:inkscape="http://www.inkscape.org/namespaces/inkscape"
   xmlns:sodipodi="http://sodipodi.sourceforge.net/DTD/sodipodi-0.dtd"
   xmlns="http://www.w3.org/2000/svg"
   xmlns:svg="http://www.w3.org/2000/svg">
  <defs
     id="defs1" />
  <sodipodi:namedview
     id="namedview1"
     pagecolor="#505050"
     bordercolor="#ffffff"
     borderopacity="1"
     inkscape:showpageshadow="0"
     inkscape:pageopacity="0"
     inkscape:pagecheckerboard="1"
     inkscape:deskcolor="#505050"
     inkscape:zoom="1.4875"
     inkscape:cx="134.11765"
     inkscape:cy="134.78992"
     inkscape:window-width="1033"
     inkscape:window-height="803"
     inkscape:window-x="1528"
     inkscape:window-y="103"
     inkscape:window-maximized="0"
     inkscape:current-layer="svg" />
  <g
     id="svgg"
     transform="translate(-66.034142,-65.106499)">
    <path
       id="path0"
       d="m 198.945,65.146 c -1.988,0.319 -2.975,2.314 -7.118,14.38 -2.206,6.427 -8.196,23.902 -13.312,38.833 -10.858,31.695 -9.98,29.297 -10.726,29.297 -0.324,0 -4.064,-3.482 -8.311,-7.738 -9.115,-9.136 -32.063,-30.847 -33.371,-31.572 -1.638,-0.909 -3.276,-0.659 -4.393,0.668 -2.112,2.51 -1.906,2.823 9.96,15.154 21.378,22.216 20.644,21.292 18.183,22.904 -1.538,1.007 -2.205,0.449 -15.873,-13.29 -15.724,-15.806 -17.053,-16.985 -19.132,-16.985 -2.662,0 -4.075,3.124 -2.479,5.479 1.233,1.819 13.669,15.315 23.021,24.983 5.993,6.195 6.665,7.435 4.753,8.774 -1.797,1.258 -2.143,0.949 -19.7,-17.601 -13.204,-13.95 -13.777,-14.373 -16.402,-12.115 -2.62,2.254 -2.339,2.731 10.596,17.991 9.281,10.951 10.271,12.373 8.96,12.877 -0.34,0.13 -12.618,0.237 -27.286,0.237 -28.563,0 -28.708,0.01 -29.725,1.976 -1.51,2.92 -0.862,3.593 13.914,14.43 7.176,5.264 15.949,11.76 19.495,14.437 3.545,2.676 13.741,10.344 22.657,17.04 19.674,14.775 19.34,14.441 18.323,18.306 -0.819,3.113 -6.689,21.912 -7.081,22.678 -0.22,0.43 -3.803,4.223 -7.961,8.43 -8.66,8.761 -9.58,10.165 -9.58,14.617 0,3.682 1.189,6.056 4.48,8.945 3.189,2.799 3.51,0.23 -2.527,20.193 -6.683,22.102 -6.637,21.808 -3.656,23.404 2.679,1.434 1.464,2.17 25.776,-15.625 10.957,-8.02 25.722,-18.807 32.812,-23.97 27.688,-20.163 25.481,-18.726 27.564,-17.94 1.148,0.433 22.753,16.027 57.04,41.17 25.706,18.851 25.418,18.687 27.978,15.868 1.556,-1.715 1.453,-2.367 -2.403,-15.221 -2.026,-6.754 -4.697,-15.692 -5.936,-19.864 l -2.252,-7.585 -0.019,-5.469 c -0.021,-6.098 -0.262,-6.882 -3.366,-10.951 -1.697,-2.224 -2.044,-3.199 -8.736,-24.575 -2.485,-7.938 -4.518,-14.934 -4.518,-15.547 0,-2.876 0.25,-3.099 19.922,-17.754 8.916,-6.643 21.748,-16.204 28.515,-21.247 6.768,-5.044 15.323,-11.419 19.013,-14.167 8.288,-6.175 9.317,-7.829 6.509,-10.468 l -0.975,-0.916 -32.488,-0.203 c -17.869,-0.112 -32.532,-0.243 -32.586,-0.293 -0.502,-0.462 0.344,-2.425 2.701,-6.268 10.962,-17.873 15.489,-37.346 9.667,-41.581 -4.145,-3.016 -4.802,-2.539 -27.13,19.697 -10.74,10.695 -19.459,19.078 -19.844,19.078 -0.925,0 -0.103,2.286 -14.321,-39.844 -14.376,-42.599 -13.843,-41.087 -14.797,-41.951 -0.863,-0.78 -2.651,-1.296 -3.835,-1.106 m -72.597,44.081 c 2.124,1.47 34.895,32.984 37.956,36.5 5.193,5.966 6.389,9.112 6.408,16.854 0.012,5.063 0.461,5.88 6.078,11.068 2.549,2.354 5.958,5.515 7.575,7.024 6.528,6.091 7.415,6.827 8.228,6.827 0.594,0 12.249,-11.31 39.603,-38.434 41.294,-40.945 40.602,-40.318 44.119,-39.98 11.48,1.104 0.073,35.625 -19.163,57.991 -8.422,9.792 -27.933,29.894 -30.227,31.143 -2.773,1.509 -6.439,1.718 -11.282,0.645 -6.118,-1.356 -8.612,-0.918 -8.612,1.51 0,1.143 0.146,1.285 37.496,36.343 28.852,27.081 29.774,28.104 30.349,33.676 0.688,6.667 -3.541,11.224 -10.729,11.561 -6.014,0.283 -6.652,-0.16 -16.899,-11.719 -4.628,-5.222 -17.922,-20.221 -29.542,-33.332 -11.619,-13.111 -21.409,-24.073 -21.755,-24.36 -1.339,-1.111 -2.481,10e-4 -16.692,16.25 -44.18,50.52 -43.142,49.368 -45.478,50.466 -7.707,3.622 -16.8,-1.738 -16.782,-9.893 0.012,-5.406 -2.736,-2.316 41.876,-47.109 19.186,-19.263 23.156,-23.431 23.156,-24.307 0,-1.179 -17.458,-19.332 -19.726,-20.512 -0.812,-0.422 -3.442,-0.761 -8.55,-1.101 -11.431,-0.761 -16.515,-4.305 -27.974,-19.496 -1.181,-1.566 -6.427,-7.906 -11.657,-14.087 -11.573,-13.679 -12.244,-14.922 -8.922,-16.514 1.786,-0.856 3.126,0.233 12.413,10.087 15.7,16.657 19.856,20.703 21.265,20.703 1.248,0 2.388,-0.877 2.537,-1.953 0.26,-1.865 -0.349,-2.678 -8.116,-10.845 -8.559,-8.999 -18.621,-19.893 -19.991,-21.643 -2.028,-2.588 -0.771,-5.805 2.048,-5.241 1.428,0.285 1.704,0.543 19.064,17.755 14.809,14.682 14.392,14.378 16.331,11.914 1.696,-2.156 1.921,-1.852 -12.31,-16.649 -17.268,-17.956 -16.959,-17.606 -16.959,-19.166 0,-2.573 2.522,-3.598 4.864,-1.976"
       stroke="none"
       fill="#fbba17"
       fill-rule="evenodd" />
    <path
       id="path1"
       d="m 123.438,108.484 c -1.245,0.45 -1.954,1.436 -1.954,2.719 0,1.56 -0.309,1.21 16.959,19.166 14.231,14.797 14.006,14.493 12.31,16.649 -1.939,2.464 -1.522,2.768 -16.331,-11.914 -17.36,-17.212 -17.636,-17.47 -19.064,-17.755 -2.819,-0.564 -4.076,2.653 -2.048,5.241 1.37,1.75 11.432,12.644 19.991,21.643 7.767,8.167 8.376,8.98 8.116,10.845 -0.149,1.076 -1.289,1.953 -2.537,1.953 -1.409,0 -5.565,-4.046 -21.265,-20.703 -9.287,-9.854 -10.627,-10.943 -12.413,-10.087 -3.322,1.592 -2.651,2.835 8.922,16.514 5.23,6.181 10.476,12.521 11.657,14.087 11.459,15.191 16.543,18.735 27.974,19.496 5.108,0.34 7.738,0.679 8.55,1.101 2.268,1.18 19.726,19.333 19.726,20.512 0,0.876 -3.97,5.044 -23.156,24.307 -44.612,44.793 -41.864,41.703 -41.876,47.109 -0.018,8.155 9.075,13.515 16.782,9.893 2.336,-1.098 1.298,0.054 45.478,-50.466 14.211,-16.249 15.353,-17.361 16.692,-16.25 0.346,0.287 10.136,11.249 21.755,24.36 11.62,13.111 24.914,28.11 29.542,33.332 10.247,11.559 10.885,12.002 16.899,11.719 7.188,-0.337 11.417,-4.894 10.729,-11.561 -0.575,-5.572 -1.497,-6.595 -30.349,-33.676 -37.35,-35.058 -37.496,-35.2 -37.496,-36.343 0,-2.428 2.494,-2.866 8.612,-1.51 4.843,1.073 8.509,0.864 11.282,-0.645 2.294,-1.249 21.805,-21.351 30.227,-31.143 19.236,-22.366 30.643,-56.887 19.163,-57.991 -3.517,-0.338 -2.825,-0.965 -44.119,39.98 -27.354,27.124 -39.009,38.434 -39.603,38.434 -0.813,0 -1.7,-0.736 -8.228,-6.827 -1.617,-1.509 -5.026,-4.67 -7.575,-7.024 -5.617,-5.188 -6.066,-6.005 -6.078,-11.068 -0.026,-11.046 -1.123,-12.555 -26.78,-36.879 -19.298,-18.296 -18.76,-17.844 -20.494,-17.218"
       stroke="none"
       fill="#e93a1c"
       fill-rule="evenodd" />
  </g>
</svg>
